<svg xmlns="http://www.w3.org/2000/svg" width="79" height="79" viewBox="0 0 79 79"><g transform="translate(-792 -3964)"><circle cx="39.5" cy="39.5" r="39.5" transform="translate(792 3964)" fill="#e305b7"/><path d="M35.9,73.062a.43.43,0,0,1,.693.336V88.013a3.431,3.431,0,0,1-3.43,3.43H3.43A3.431,3.431,0,0,1,0,88.013V73.405a.427.427,0,0,1,.693-.336c1.6,1.244,3.723,2.823,11.013,8.119,1.508,1.1,4.052,3.416,6.589,3.4,2.551.021,5.146-2.344,6.6-3.4C32.182,75.892,34.3,74.306,35.9,73.062ZM18.3,82.3c1.658.029,4.045-2.087,5.246-2.959,9.484-6.882,10.205-7.483,12.392-9.2a1.71,1.71,0,0,0,.657-1.351V67.43A3.431,3.431,0,0,0,33.161,64H3.43A3.431,3.431,0,0,0,0,67.43v1.358a1.721,1.721,0,0,0,.657,1.351c2.187,1.708,2.909,2.316,12.392,9.2C14.251,80.209,16.638,82.324,18.3,82.3Z" transform="translate(813 3926)" fill="#fff"/></g></svg>