<svg xmlns="http://www.w3.org/2000/svg" width="47.694" height="28.501" viewBox="0 0 47.694 28.501">
  <path id="icon_php.svg" d="M23.847,89.123c12.773,0,22.6,6.113,22.6,12.828s-9.829,12.828-22.6,12.828-22.6-6.113-22.6-12.828,9.829-12.828,22.6-12.828m0-1.423C10.679,87.7,0,94.076,0,101.951S10.679,116.2,23.847,116.2s23.847-6.376,23.847-14.251S37.015,87.7,23.847,87.7Zm-7.586,13.107c-.589,3.429-2.668,3.074-5.224,3.074L12.058,97.9c2.832,0,4.755-.347,4.2,2.9Zm-9,9.128H9.993l.648-3.793c3.063,0,4.963.254,6.722-1.617,1.945-2.032,2.452-5.648,1.066-7.46a4.084,4.084,0,0,0-3.465-1.414H9.7ZM21.1,91.849h2.72l-.648,3.793c2.347,0,4.524-.195,5.574.906,1.1,1.152.574,2.625-.619,9.577H25.367c1.148-6.723,1.364-7.282.946-7.79-.4-.491-1.319-.389-3.532-.389l-1.4,8.179H18.66L21.1,91.849Zm16.536,8.958c-.6,3.48-2.735,3.074-5.224,3.074L33.431,97.9C36.277,97.9,38.185,97.556,37.634,100.807Zm-9,9.128h2.742l.648-3.793c3.219,0,5,.212,6.722-1.617,1.945-2.032,2.452-5.648,1.066-7.46a4.084,4.084,0,0,0-3.465-1.414H31.076Z" transform="translate(0 -87.7)"/>
</svg>
