<svg xmlns="http://www.w3.org/2000/svg" width="65.721" height="40.253" viewBox="0 0 65.721 40.253">
  <path id="icon_node.svg" d="M32.481,100.267a1.357,1.357,0,0,1-.626-.164l-1.972-1.171c-.3-.164-.154-.226-.051-.257a3.6,3.6,0,0,0,.893-.411.177.177,0,0,1,.144.01l1.52.9a.2.2,0,0,0,.185,0l5.935-3.43a.194.194,0,0,0,.092-.164V88.735a.174.174,0,0,0-.092-.164l-5.935-3.42a.2.2,0,0,0-.185,0l-5.935,3.42a.185.185,0,0,0-.092.164v6.849a.191.191,0,0,0,.092.154l1.622.934c.883.442,1.427-.082,1.427-.6V89.31a.173.173,0,0,1,.175-.175h.75a.173.173,0,0,1,.175.175v6.767a1.638,1.638,0,0,1-1.756,1.848,2.545,2.545,0,0,1-1.366-.37l-1.561-.893a1.268,1.268,0,0,1-.626-1.078V88.735a1.234,1.234,0,0,1,.626-1.078l5.935-3.43a1.274,1.274,0,0,1,1.243,0l5.935,3.43a1.268,1.268,0,0,1,.626,1.078v6.849a1.234,1.234,0,0,1-.626,1.078l-5.935,3.43a1.137,1.137,0,0,1-.616.175Zm4.8-6.757c0-1.284-.863-1.622-2.69-1.869-1.848-.246-2.033-.37-2.033-.8,0-.359.154-.832,1.52-.832,1.222,0,1.674.267,1.859,1.089a.165.165,0,0,0,.164.133h.77a.17.17,0,0,0,.123-.051.162.162,0,0,0,.041-.133c-.123-1.417-1.058-2.074-2.957-2.074-1.694,0-2.7.719-2.7,1.91,0,1.3,1.006,1.653,2.629,1.818,1.941.2,2.095.472,2.095.852,0,.667-.534.945-1.787.945-1.571,0-1.92-.39-2.033-1.171a.169.169,0,0,0-.175-.144h-.77a.173.173,0,0,0-.175.175c0,1,.544,2.187,3.142,2.187,1.9,0,2.978-.739,2.978-2.033Zm5.6-5.145a1.14,1.14,0,1,1-1.14-1.14A1.131,1.131,0,0,1,42.873,88.366Zm-.185,0a.96.96,0,1,0-.965.965A.978.978,0,0,0,42.688,88.366ZM42.226,89h-.267c-.01-.062-.051-.39-.051-.4-.021-.072-.041-.113-.133-.113h-.226V89H41.3V87.719h.442c.154,0,.452,0,.452.339a.3.3,0,0,1-.246.318c.175.01.185.123.216.288a1.431,1.431,0,0,0,.062.339Zm-.288-.9c0-.175-.123-.175-.185-.175h-.205v.359h.2A.173.173,0,0,0,41.938,88.1ZM14.1,73.465a.747.747,0,0,0-.38-.657L7.424,69.183a.812.812,0,0,0-.349-.1H7.014a.724.724,0,0,0-.349.1L.38,72.808a.759.759,0,0,0-.38.657l.01,9.756A.392.392,0,0,0,.2,83.55a.362.362,0,0,0,.38,0L4.313,81.4a.772.772,0,0,0,.38-.657V76.187a.759.759,0,0,1,.38-.657l1.592-.914a.73.73,0,0,1,.38-.1.7.7,0,0,1,.38.1l1.592.914a.759.759,0,0,1,.38.657v4.559a.759.759,0,0,0,.38.657l3.738,2.146a.362.362,0,0,0,.38,0,.379.379,0,0,0,.185-.329l.021-9.756ZM48.521,62.816V80.931a.759.759,0,0,1-.38.657l-6.295,3.635a.771.771,0,0,1-.76,0l-6.295-3.635a.759.759,0,0,1-.38-.657v-7.27a.759.759,0,0,1,.38-.657l6.295-3.635a.771.771,0,0,1,.76,0l1.571.9a.269.269,0,0,0,.4-.226V60.393a.378.378,0,0,1,.565-.329l3.748,2.095a.744.744,0,0,1,.39.657ZM43.8,76.053a.194.194,0,0,0-.092-.164l-2.156-1.253a.217.217,0,0,0-.2,0L39.2,75.889a.174.174,0,0,0-.092.164v2.5a.194.194,0,0,0,.092.164l2.156,1.243a.2.2,0,0,0,.185,0l2.156-1.243a.174.174,0,0,0,.092-.164v-2.5Zm21.544-.072a.759.759,0,0,0,.38-.657V73.568a.759.759,0,0,0-.38-.657l-6.254-3.635a.771.771,0,0,0-.76,0l-6.295,3.635a.759.759,0,0,0-.38.657v7.27a.747.747,0,0,0,.38.657l6.254,3.563a.752.752,0,0,0,.75,0l3.779-2.105a.377.377,0,0,0,0-.657l-6.336-3.635a.38.38,0,0,1-.2-.329v-2.28a.38.38,0,0,1,.2-.329l1.972-1.14a.362.362,0,0,1,.38,0l1.972,1.14a.4.4,0,0,1,.2.329V77.84a.385.385,0,0,0,.575.329l3.769-2.187Zm-7.938.359a.157.157,0,0,0-.072.123v1.4a.142.142,0,0,0,.072.123l1.212.7a.123.123,0,0,0,.144,0l1.212-.7a.157.157,0,0,0,.072-.123v-1.4a.142.142,0,0,0-.072-.123l-1.212-.7a.123.123,0,0,0-.144,0ZM31.3,80.808V73.578a.779.779,0,0,0-.4-.657l-6.274-3.615a.77.77,0,0,0-.76,0l-6.274,3.615a.766.766,0,0,0-.4.657v7.229a.792.792,0,0,0,.411.657l6.285,3.615a.746.746,0,0,0,.76,0l6.264-3.615a.763.763,0,0,0,.37-.483.9.9,0,0,0,.021-.175ZM23.67,67.982l-.082.051H23.7Zm7.825,13.37-.041-.072v.092Z" transform="translate(0 -60.015)"/>
</svg>
