<svg xmlns="http://www.w3.org/2000/svg" width="42.77" height="43.305" viewBox="0 0 42.77 43.305">
  <path id="icon_js-square.svg" d="M38.188,32H4.583A4.613,4.613,0,0,0,0,36.64V70.665a4.613,4.613,0,0,0,4.583,4.64H38.188a4.613,4.613,0,0,0,4.583-4.64V36.64A4.613,4.613,0,0,0,38.188,32ZM23.275,65.774c0,4.215-2.444,6.138-6.005,6.138a6.239,6.239,0,0,1-6.034-3.722l3.275-2c.63,1.131,1.2,2.088,2.587,2.088,1.317,0,2.158-.522,2.158-2.562V51.884h4.019V65.774Zm9.509,6.138c-3.733,0-6.148-1.8-7.323-4.157l3.275-1.914A4.381,4.381,0,0,0,32.7,68.317c1.661,0,2.73-.841,2.73-2.011,0-1.392-1.088-1.885-2.931-2.707l-1-.435c-2.9-1.247-4.821-2.823-4.821-6.138,0-3.055,2.3-5.375,5.881-5.375a5.906,5.906,0,0,1,5.709,3.258l-3.131,2.03a2.732,2.732,0,0,0-2.587-1.74,1.753,1.753,0,0,0-1.919,1.74c0,1.218.745,1.711,2.473,2.475l1,.435c3.418,1.479,5.337,3,5.337,6.4,0,3.654-2.845,5.664-6.654,5.664Z" transform="translate(0 -32)"/>
</svg>
