<svg xmlns="http://www.w3.org/2000/svg" width="79" height="79" viewBox="0 0 79 79"><g transform="translate(-921 -3965)"><circle cx="39.5" cy="39.5" r="39.5" transform="translate(921 3965)" fill="#e305b7"/><path d="M14.273,41.5c0,.172-.2.31-.447.31-.284.026-.482-.112-.482-.31,0-.172.2-.31.447-.31C14.049,41.166,14.273,41.3,14.273,41.5ZM11.6,41.114c-.06.172.112.37.37.422a.4.4,0,0,0,.533-.172c.052-.172-.112-.37-.37-.447a.442.442,0,0,0-.533.2Zm3.8-.146c-.25.06-.422.224-.4.422.026.172.249.284.508.224s.422-.224.4-.4S15.65,40.942,15.4,40.968ZM21.061,8A20.63,20.63,0,0,0,0,28.992,21.57,21.57,0,0,0,14.583,49.572c1.1.2,1.488-.482,1.488-1.041,0-.533-.026-3.476-.026-5.282,0,0-6.022,1.291-7.287-2.564,0,0-.981-2.5-2.392-3.149,0,0-1.97-1.351.138-1.325a4.541,4.541,0,0,1,3.321,2.22c1.884,3.321,5.042,2.366,6.272,1.8a4.782,4.782,0,0,1,1.377-2.9c-4.809-.533-9.662-1.23-9.662-9.507a6.52,6.52,0,0,1,2.03-5.067,8.129,8.129,0,0,1,.224-5.842c1.8-.559,5.936,2.323,5.936,2.323a20.325,20.325,0,0,1,10.806,0s4.138-2.891,5.936-2.323a8.125,8.125,0,0,1,.224,5.842c1.377,1.523,2.22,2.71,2.22,5.067,0,8.3-5.067,8.965-9.877,9.507a5.088,5.088,0,0,1,1.463,3.992c0,2.9-.026,6.487-.026,7.192,0,.559.4,1.239,1.488,1.041A21.371,21.371,0,0,0,42.673,28.992C42.673,17.059,32.994,8,21.061,8ZM8.362,37.673c-.112.086-.086.284.06.447.138.138.336.2.447.086.112-.086.086-.284-.06-.447C8.672,37.621,8.474,37.561,8.362,37.673Zm-.929-.7c-.06.112.026.249.2.336a.256.256,0,0,0,.37-.06c.06-.112-.026-.25-.2-.336C7.631,36.864,7.494,36.89,7.433,36.976Zm2.787,3.063c-.138.112-.086.37.112.533.2.2.447.224.559.086.112-.112.06-.37-.112-.533C10.591,39.927,10.333,39.9,10.221,40.039ZM9.24,38.774c-.138.086-.138.31,0,.508s.37.284.482.2a.392.392,0,0,0,0-.533C9.6,38.748,9.378,38.662,9.24,38.774Z" transform="translate(939 3976)" fill="#fff"/></g></svg>