<svg xmlns="http://www.w3.org/2000/svg" width="78" height="79" viewBox="0 0 78 79"><g transform="translate(-1050 -3964)"><ellipse cx="39" cy="39.5" rx="39" ry="39.5" transform="translate(1050 3964)" fill="#e305b7"/><path d="M35.21,56.025c.025.349.025.7.025,1.046,0,10.633-8.093,22.884-22.884,22.884A22.729,22.729,0,0,1,0,76.345a16.639,16.639,0,0,0,1.942.1,16.108,16.108,0,0,0,9.985-3.436,8.057,8.057,0,0,1-7.52-5.578,10.142,10.142,0,0,0,1.519.124,8.507,8.507,0,0,0,2.117-.274,8.044,8.044,0,0,1-6.449-7.894v-.1a8.1,8.1,0,0,0,3.636,1.021,8.055,8.055,0,0,1-2.49-10.757,22.862,22.862,0,0,0,16.584,8.417,9.08,9.08,0,0,1-.2-1.843,8.051,8.051,0,0,1,13.92-5.5,15.835,15.835,0,0,0,5.1-1.942,8.021,8.021,0,0,1-3.536,4.432,16.124,16.124,0,0,0,4.632-1.245A17.289,17.289,0,0,1,35.21,56.025Z" transform="translate(1070.205 3940.377)" fill="#fff"/></g></svg>