<svg xmlns="http://www.w3.org/2000/svg" width="33.807" height="23.366" viewBox="0 0 33.807 23.366">
  <path id="icon_terminal.svg" d="M13.627,50.087,3.361,60.353a1.268,1.268,0,0,1-1.793,0l-1.2-1.2a1.268,1.268,0,0,1,0-1.791L8.5,49.191.369,41.017a1.268,1.268,0,0,1,0-1.791l1.2-1.2a1.268,1.268,0,0,1,1.793,0L13.627,48.294A1.268,1.268,0,0,1,13.627,50.087Zm20.179,9.668v-1.69A1.268,1.268,0,0,0,32.538,56.8H16.48a1.268,1.268,0,0,0-1.268,1.268v1.69a1.268,1.268,0,0,0,1.268,1.268H32.538A1.268,1.268,0,0,0,33.806,59.755Z" transform="translate(0 -37.657)"/>
</svg>
